<?xml version="1.0" encoding="utf-8" standalone="no"?>
<!DOCTYPE svg PUBLIC "-//W3C//DTD SVG 1.1//EN"
  "http://www.w3.org/Graphics/SVG/1.1/DTD/svg11.dtd">
<!-- Created with matplotlib (http://matplotlib.org/) -->
<svg height="498pt" version="1.1" viewBox="0 0 500 498" width="500pt" xmlns="http://www.w3.org/2000/svg" xmlns:xlink="http://www.w3.org/1999/xlink">
 <defs>
  <style type="text/css">
*{stroke-linecap:butt;stroke-linejoin:round;stroke-miterlimit:100000;}
  </style>
 </defs>
 <g id="figure_1">
  <g id="patch_1">
   <path d="M 0 498.873 
L 500.4975 498.873 
L 500.4975 0 
L 0 0 
z
" style="fill:#ffffff;"/>
  </g>
  <g id="axes_1">
   <g id="patch_2">
    <path d="M 46.8975 368.74175 
L 493.2975 368.74175 
L 493.2975 23.14175 
L 46.8975 23.14175 
z
" style="fill:#ffffff;"/>
   </g>
   <g id="patch_3">
    <path clip-path="url(#p867e7b0a0e)" d="M 46.8975 368.74175 
L 54.7095 368.74175 
L 54.7095 368.74175 
L 46.8975 368.74175 
z
" style="stroke:#000000;stroke-linejoin:miter;"/>
   </g>
   <g id="patch_4">
    <path clip-path="url(#p867e7b0a0e)" d="M 69.2175 368.74175 
L 77.0295 368.74175 
L 77.0295 267.399089 
L 69.2175 267.399089 
z
" style="stroke:#000000;stroke-linejoin:miter;"/>
   </g>
   <g id="patch_5">
    <path clip-path="url(#p867e7b0a0e)" d="M 91.5375 368.74175 
L 99.3495 368.74175 
L 99.3495 368.74175 
L 91.5375 368.74175 
z
" style="stroke:#000000;stroke-linejoin:miter;"/>
   </g>
   <g id="patch_6">
    <path clip-path="url(#p867e7b0a0e)" d="M 113.8575 368.74175 
L 121.6695 368.74175 
L 121.6695 368.74175 
L 113.8575 368.74175 
z
" style="stroke:#000000;stroke-linejoin:miter;"/>
   </g>
   <g id="patch_7">
    <path clip-path="url(#p867e7b0a0e)" d="M 136.1775 368.74175 
L 143.9895 368.74175 
L 143.9895 368.74175 
L 136.1775 368.74175 
z
" style="stroke:#000000;stroke-linejoin:miter;"/>
   </g>
   <g id="patch_8">
    <path clip-path="url(#p867e7b0a0e)" d="M 158.4975 368.74175 
L 166.3095 368.74175 
L 166.3095 368.74175 
L 158.4975 368.74175 
z
" style="stroke:#000000;stroke-linejoin:miter;"/>
   </g>
   <g id="patch_9">
    <path clip-path="url(#p867e7b0a0e)" d="M 180.8175 368.74175 
L 188.6295 368.74175 
L 188.6295 368.74175 
L 180.8175 368.74175 
z
" style="stroke:#000000;stroke-linejoin:miter;"/>
   </g>
   <g id="patch_10">
    <path clip-path="url(#p867e7b0a0e)" d="M 203.1375 368.74175 
L 210.9495 368.74175 
L 210.9495 368.74175 
L 203.1375 368.74175 
z
" style="stroke:#000000;stroke-linejoin:miter;"/>
   </g>
   <g id="patch_11">
    <path clip-path="url(#p867e7b0a0e)" d="M 225.4575 368.74175 
L 233.2695 368.74175 
L 233.2695 368.74175 
L 225.4575 368.74175 
z
" style="stroke:#000000;stroke-linejoin:miter;"/>
   </g>
   <g id="patch_12">
    <path clip-path="url(#p867e7b0a0e)" d="M 247.7775 368.74175 
L 255.5895 368.74175 
L 255.5895 368.74175 
L 247.7775 368.74175 
z
" style="stroke:#000000;stroke-linejoin:miter;"/>
   </g>
   <g id="patch_13">
    <path clip-path="url(#p867e7b0a0e)" d="M 270.0975 368.74175 
L 277.9095 368.74175 
L 277.9095 349.399304 
L 270.0975 349.399304 
z
" style="stroke:#000000;stroke-linejoin:miter;"/>
   </g>
   <g id="patch_14">
    <path clip-path="url(#p867e7b0a0e)" d="M 292.4175 368.74175 
L 300.2295 368.74175 
L 300.2295 368.74175 
L 292.4175 368.74175 
z
" style="stroke:#000000;stroke-linejoin:miter;"/>
   </g>
   <g id="patch_15">
    <path clip-path="url(#p867e7b0a0e)" d="M 314.7375 368.74175 
L 322.5495 368.74175 
L 322.5495 368.74175 
L 314.7375 368.74175 
z
" style="stroke:#000000;stroke-linejoin:miter;"/>
   </g>
   <g id="patch_16">
    <path clip-path="url(#p867e7b0a0e)" d="M 337.0575 368.74175 
L 344.8695 368.74175 
L 344.8695 271.10354 
L 337.0575 271.10354 
z
" style="stroke:#000000;stroke-linejoin:miter;"/>
   </g>
   <g id="patch_17">
    <path clip-path="url(#p867e7b0a0e)" d="M 359.3775 368.74175 
L 367.1895 368.74175 
L 367.1895 368.74175 
L 359.3775 368.74175 
z
" style="stroke:#000000;stroke-linejoin:miter;"/>
   </g>
   <g id="patch_18">
    <path clip-path="url(#p867e7b0a0e)" d="M 381.6975 368.74175 
L 389.5095 368.74175 
L 389.5095 368.74175 
L 381.6975 368.74175 
z
" style="stroke:#000000;stroke-linejoin:miter;"/>
   </g>
   <g id="patch_19">
    <path clip-path="url(#p867e7b0a0e)" d="M 404.0175 368.74175 
L 411.8295 368.74175 
L 411.8295 306.76602 
L 404.0175 306.76602 
z
" style="stroke:#000000;stroke-linejoin:miter;"/>
   </g>
   <g id="patch_20">
    <path clip-path="url(#p867e7b0a0e)" d="M 426.3375 368.74175 
L 434.1495 368.74175 
L 434.1495 73.040797 
L 426.3375 73.040797 
z
" style="stroke:#000000;stroke-linejoin:miter;"/>
   </g>
   <g id="patch_21">
    <path clip-path="url(#p867e7b0a0e)" d="M 448.6575 368.74175 
L 456.4695 368.74175 
L 456.4695 368.74175 
L 448.6575 368.74175 
z
" style="stroke:#000000;stroke-linejoin:miter;"/>
   </g>
   <g id="patch_22">
    <path clip-path="url(#p867e7b0a0e)" d="M 470.9775 368.74175 
L 478.7895 368.74175 
L 478.7895 368.74175 
L 470.9775 368.74175 
z
" style="stroke:#000000;stroke-linejoin:miter;"/>
   </g>
   <g id="patch_23">
    <path clip-path="url(#p867e7b0a0e)" d="M 54.7095 368.74175 
L 62.5215 368.74175 
L 62.5215 368.74175 
L 54.7095 368.74175 
z
" style="fill:#808080;stroke:#000000;stroke-linejoin:miter;"/>
   </g>
   <g id="patch_24">
    <path clip-path="url(#p867e7b0a0e)" d="M 77.0295 368.74175 
L 84.8415 368.74175 
L 84.8415 252.351499 
L 77.0295 252.351499 
z
" style="fill:#808080;stroke:#000000;stroke-linejoin:miter;"/>
   </g>
   <g id="patch_25">
    <path clip-path="url(#p867e7b0a0e)" d="M 99.3495 368.74175 
L 107.1615 368.74175 
L 107.1615 368.74175 
L 99.3495 368.74175 
z
" style="fill:#808080;stroke:#000000;stroke-linejoin:miter;"/>
   </g>
   <g id="patch_26">
    <path clip-path="url(#p867e7b0a0e)" d="M 121.6695 368.74175 
L 129.4815 368.74175 
L 129.4815 368.74175 
L 121.6695 368.74175 
z
" style="fill:#808080;stroke:#000000;stroke-linejoin:miter;"/>
   </g>
   <g id="patch_27">
    <path clip-path="url(#p867e7b0a0e)" d="M 143.9895 368.74175 
L 151.8015 368.74175 
L 151.8015 368.74175 
L 143.9895 368.74175 
z
" style="fill:#808080;stroke:#000000;stroke-linejoin:miter;"/>
   </g>
   <g id="patch_28">
    <path clip-path="url(#p867e7b0a0e)" d="M 166.3095 368.74175 
L 174.1215 368.74175 
L 174.1215 368.74175 
L 166.3095 368.74175 
z
" style="fill:#808080;stroke:#000000;stroke-linejoin:miter;"/>
   </g>
   <g id="patch_29">
    <path clip-path="url(#p867e7b0a0e)" d="M 188.6295 368.74175 
L 196.4415 368.74175 
L 196.4415 368.74175 
L 188.6295 368.74175 
z
" style="fill:#808080;stroke:#000000;stroke-linejoin:miter;"/>
   </g>
   <g id="patch_30">
    <path clip-path="url(#p867e7b0a0e)" d="M 210.9495 368.74175 
L 218.7615 368.74175 
L 218.7615 368.74175 
L 210.9495 368.74175 
z
" style="fill:#808080;stroke:#000000;stroke-linejoin:miter;"/>
   </g>
   <g id="patch_31">
    <path clip-path="url(#p867e7b0a0e)" d="M 233.2695 368.74175 
L 241.0815 368.74175 
L 241.0815 368.74175 
L 233.2695 368.74175 
z
" style="fill:#808080;stroke:#000000;stroke-linejoin:miter;"/>
   </g>
   <g id="patch_32">
    <path clip-path="url(#p867e7b0a0e)" d="M 255.5895 368.74175 
L 263.4015 368.74175 
L 263.4015 368.74175 
L 255.5895 368.74175 
z
" style="fill:#808080;stroke:#000000;stroke-linejoin:miter;"/>
   </g>
   <g id="patch_33">
    <path clip-path="url(#p867e7b0a0e)" d="M 277.9095 368.74175 
L 285.7215 368.74175 
L 285.7215 331.330367 
L 277.9095 331.330367 
z
" style="fill:#808080;stroke:#000000;stroke-linejoin:miter;"/>
   </g>
   <g id="patch_34">
    <path clip-path="url(#p867e7b0a0e)" d="M 300.2295 368.74175 
L 308.0415 368.74175 
L 308.0415 368.74175 
L 300.2295 368.74175 
z
" style="fill:#808080;stroke:#000000;stroke-linejoin:miter;"/>
   </g>
   <g id="patch_35">
    <path clip-path="url(#p867e7b0a0e)" d="M 322.5495 368.74175 
L 330.3615 368.74175 
L 330.3615 368.74175 
L 322.5495 368.74175 
z
" style="fill:#808080;stroke:#000000;stroke-linejoin:miter;"/>
   </g>
   <g id="patch_36">
    <path clip-path="url(#p867e7b0a0e)" d="M 344.8695 368.74175 
L 352.6815 368.74175 
L 352.6815 279.581446 
L 344.8695 279.581446 
z
" style="fill:#808080;stroke:#000000;stroke-linejoin:miter;"/>
   </g>
   <g id="patch_37">
    <path clip-path="url(#p867e7b0a0e)" d="M 367.1895 368.74175 
L 375.0015 368.74175 
L 375.0015 368.74175 
L 367.1895 368.74175 
z
" style="fill:#808080;stroke:#000000;stroke-linejoin:miter;"/>
   </g>
   <g id="patch_38">
    <path clip-path="url(#p867e7b0a0e)" d="M 389.5095 368.74175 
L 397.3215 368.74175 
L 397.3215 368.74175 
L 389.5095 368.74175 
z
" style="fill:#808080;stroke:#000000;stroke-linejoin:miter;"/>
   </g>
   <g id="patch_39">
    <path clip-path="url(#p867e7b0a0e)" d="M 411.8295 368.74175 
L 419.6415 368.74175 
L 419.6415 322.011462 
L 411.8295 322.011462 
z
" style="fill:#808080;stroke:#000000;stroke-linejoin:miter;"/>
   </g>
   <g id="patch_40">
    <path clip-path="url(#p867e7b0a0e)" d="M 434.1495 368.74175 
L 441.9615 368.74175 
L 441.9615 82.433976 
L 434.1495 82.433976 
z
" style="fill:#808080;stroke:#000000;stroke-linejoin:miter;"/>
   </g>
   <g id="patch_41">
    <path clip-path="url(#p867e7b0a0e)" d="M 456.4695 368.74175 
L 464.2815 368.74175 
L 464.2815 368.74175 
L 456.4695 368.74175 
z
" style="fill:#808080;stroke:#000000;stroke-linejoin:miter;"/>
   </g>
   <g id="patch_42">
    <path clip-path="url(#p867e7b0a0e)" d="M 478.7895 368.74175 
L 486.6015 368.74175 
L 486.6015 368.74175 
L 478.7895 368.74175 
z
" style="fill:#808080;stroke:#000000;stroke-linejoin:miter;"/>
   </g>
   <g id="patch_43">
    <path d="M 46.8975 23.14175 
L 493.2975 23.14175 
" style="fill:none;stroke:#000000;stroke-linecap:square;stroke-linejoin:miter;"/>
   </g>
   <g id="patch_44">
    <path d="M 493.2975 368.74175 
L 493.2975 23.14175 
" style="fill:none;stroke:#000000;stroke-linecap:square;stroke-linejoin:miter;"/>
   </g>
   <g id="patch_45">
    <path d="M 46.8975 368.74175 
L 493.2975 368.74175 
" style="fill:none;stroke:#000000;stroke-linecap:square;stroke-linejoin:miter;"/>
   </g>
   <g id="patch_46">
    <path d="M 46.8975 368.74175 
L 46.8975 23.14175 
" style="fill:none;stroke:#000000;stroke-linecap:square;stroke-linejoin:miter;"/>
   </g>
   <g id="matplotlib.axis_1">
    <g id="xtick_1">
     <g id="line2d_1">
      <defs>
       <path d="M 0 0 
L 0 -4 
" id="m7c384863e3" style="stroke:#000000;stroke-width:0.5;"/>
      </defs>
      <g>
       <use style="stroke:#000000;stroke-width:0.5;" x="54.7095" xlink:href="#m7c384863e3" y="368.74175"/>
      </g>
     </g>
     <g id="line2d_2">
      <defs>
       <path d="M 0 0 
L 0 4 
" id="m606dda46b5" style="stroke:#000000;stroke-width:0.5;"/>
      </defs>
      <g>
       <use style="stroke:#000000;stroke-width:0.5;" x="54.7095" xlink:href="#m606dda46b5" y="23.14175"/>
      </g>
     </g>
     <g id="text_1">
      <!--  Bloodseeker  -->
      <defs>
       <path id="BitstreamVeraSans-Roman-20"/>
       <path d="M 30.609375 48.390625 
Q 23.390625 48.390625 19.1875 42.75 
Q 14.984375 37.109375 14.984375 27.296875 
Q 14.984375 17.484375 19.15625 11.84375 
Q 23.34375 6.203125 30.609375 6.203125 
Q 37.796875 6.203125 41.984375 11.859375 
Q 46.1875 17.53125 46.1875 27.296875 
Q 46.1875 37.015625 41.984375 42.703125 
Q 37.796875 48.390625 30.609375 48.390625 
M 30.609375 56 
Q 42.328125 56 49.015625 48.375 
Q 55.71875 40.765625 55.71875 27.296875 
Q 55.71875 13.875 49.015625 6.21875 
Q 42.328125 -1.421875 30.609375 -1.421875 
Q 18.84375 -1.421875 12.171875 6.21875 
Q 5.515625 13.875 5.515625 27.296875 
Q 5.515625 40.765625 12.171875 48.375 
Q 18.84375 56 30.609375 56 
" id="BitstreamVeraSans-Roman-6f"/>
       <path d="M 9.421875 75.984375 
L 18.40625 75.984375 
L 18.40625 0 
L 9.421875 0 
z
" id="BitstreamVeraSans-Roman-6c"/>
       <path d="M 9.078125 75.984375 
L 18.109375 75.984375 
L 18.109375 31.109375 
L 44.921875 54.6875 
L 56.390625 54.6875 
L 27.390625 29.109375 
L 57.625 0 
L 45.90625 0 
L 18.109375 26.703125 
L 18.109375 0 
L 9.078125 0 
z
" id="BitstreamVeraSans-Roman-6b"/>
       <path d="M 19.671875 34.8125 
L 19.671875 8.109375 
L 35.5 8.109375 
Q 43.453125 8.109375 47.28125 11.40625 
Q 51.125 14.703125 51.125 21.484375 
Q 51.125 28.328125 47.28125 31.5625 
Q 43.453125 34.8125 35.5 34.8125 
z
M 19.671875 64.796875 
L 19.671875 42.828125 
L 34.28125 42.828125 
Q 41.5 42.828125 45.03125 45.53125 
Q 48.578125 48.25 48.578125 53.8125 
Q 48.578125 59.328125 45.03125 62.0625 
Q 41.5 64.796875 34.28125 64.796875 
z
M 9.8125 72.90625 
L 35.015625 72.90625 
Q 46.296875 72.90625 52.390625 68.21875 
Q 58.5 63.53125 58.5 54.890625 
Q 58.5 48.1875 55.375 44.234375 
Q 52.25 40.28125 46.1875 39.3125 
Q 53.46875 37.75 57.5 32.78125 
Q 61.53125 27.828125 61.53125 20.40625 
Q 61.53125 10.640625 54.890625 5.3125 
Q 48.25 0 35.984375 0 
L 9.8125 0 
z
" id="BitstreamVeraSans-Roman-42"/>
       <path d="M 56.203125 29.59375 
L 56.203125 25.203125 
L 14.890625 25.203125 
Q 15.484375 15.921875 20.484375 11.0625 
Q 25.484375 6.203125 34.421875 6.203125 
Q 39.59375 6.203125 44.453125 7.46875 
Q 49.3125 8.734375 54.109375 11.28125 
L 54.109375 2.78125 
Q 49.265625 0.734375 44.1875 -0.34375 
Q 39.109375 -1.421875 33.890625 -1.421875 
Q 20.796875 -1.421875 13.15625 6.1875 
Q 5.515625 13.8125 5.515625 26.8125 
Q 5.515625 40.234375 12.765625 48.109375 
Q 20.015625 56 32.328125 56 
Q 43.359375 56 49.78125 48.890625 
Q 56.203125 41.796875 56.203125 29.59375 
M 47.21875 32.234375 
Q 47.125 39.59375 43.09375 43.984375 
Q 39.0625 48.390625 32.421875 48.390625 
Q 24.90625 48.390625 20.390625 44.140625 
Q 15.875 39.890625 15.1875 32.171875 
z
" id="BitstreamVeraSans-Roman-65"/>
       <path d="M 45.40625 46.390625 
L 45.40625 75.984375 
L 54.390625 75.984375 
L 54.390625 0 
L 45.40625 0 
L 45.40625 8.203125 
Q 42.578125 3.328125 38.25 0.953125 
Q 33.9375 -1.421875 27.875 -1.421875 
Q 17.96875 -1.421875 11.734375 6.484375 
Q 5.515625 14.40625 5.515625 27.296875 
Q 5.515625 40.1875 11.734375 48.09375 
Q 17.96875 56 27.875 56 
Q 33.9375 56 38.25 53.625 
Q 42.578125 51.265625 45.40625 46.390625 
M 14.796875 27.296875 
Q 14.796875 17.390625 18.875 11.75 
Q 22.953125 6.109375 30.078125 6.109375 
Q 37.203125 6.109375 41.296875 11.75 
Q 45.40625 17.390625 45.40625 27.296875 
Q 45.40625 37.203125 41.296875 42.84375 
Q 37.203125 48.484375 30.078125 48.484375 
Q 22.953125 48.484375 18.875 42.84375 
Q 14.796875 37.203125 14.796875 27.296875 
" id="BitstreamVeraSans-Roman-64"/>
       <path d="M 41.109375 46.296875 
Q 39.59375 47.171875 37.8125 47.578125 
Q 36.03125 48 33.890625 48 
Q 26.265625 48 22.1875 43.046875 
Q 18.109375 38.09375 18.109375 28.8125 
L 18.109375 0 
L 9.078125 0 
L 9.078125 54.6875 
L 18.109375 54.6875 
L 18.109375 46.1875 
Q 20.953125 51.171875 25.484375 53.578125 
Q 30.03125 56 36.53125 56 
Q 37.453125 56 38.578125 55.875 
Q 39.703125 55.765625 41.0625 55.515625 
z
" id="BitstreamVeraSans-Roman-72"/>
       <path d="M 44.28125 53.078125 
L 44.28125 44.578125 
Q 40.484375 46.53125 36.375 47.5 
Q 32.28125 48.484375 27.875 48.484375 
Q 21.1875 48.484375 17.84375 46.4375 
Q 14.5 44.390625 14.5 40.28125 
Q 14.5 37.15625 16.890625 35.375 
Q 19.28125 33.59375 26.515625 31.984375 
L 29.59375 31.296875 
Q 39.15625 29.25 43.1875 25.515625 
Q 47.21875 21.78125 47.21875 15.09375 
Q 47.21875 7.46875 41.1875 3.015625 
Q 35.15625 -1.421875 24.609375 -1.421875 
Q 20.21875 -1.421875 15.453125 -0.5625 
Q 10.6875 0.296875 5.421875 2 
L 5.421875 11.28125 
Q 10.40625 8.6875 15.234375 7.390625 
Q 20.0625 6.109375 24.8125 6.109375 
Q 31.15625 6.109375 34.5625 8.28125 
Q 37.984375 10.453125 37.984375 14.40625 
Q 37.984375 18.0625 35.515625 20.015625 
Q 33.0625 21.96875 24.703125 23.78125 
L 21.578125 24.515625 
Q 13.234375 26.265625 9.515625 29.90625 
Q 5.8125 33.546875 5.8125 39.890625 
Q 5.8125 47.609375 11.28125 51.796875 
Q 16.75 56 26.8125 56 
Q 31.78125 56 36.171875 55.265625 
Q 40.578125 54.546875 44.28125 53.078125 
" id="BitstreamVeraSans-Roman-73"/>
      </defs>
      <g transform="translate(58.02075 454.518)rotate(-90.0)scale(0.12 -0.12)">
       <use xlink:href="#BitstreamVeraSans-Roman-20"/>
       <use x="31.787109375" xlink:href="#BitstreamVeraSans-Roman-42"/>
       <use x="100.390625" xlink:href="#BitstreamVeraSans-Roman-6c"/>
       <use x="128.173828125" xlink:href="#BitstreamVeraSans-Roman-6f"/>
       <use x="189.35546875" xlink:href="#BitstreamVeraSans-Roman-6f"/>
       <use x="250.537109375" xlink:href="#BitstreamVeraSans-Roman-64"/>
       <use x="314.013671875" xlink:href="#BitstreamVeraSans-Roman-73"/>
       <use x="366.11328125" xlink:href="#BitstreamVeraSans-Roman-65"/>
       <use x="427.63671875" xlink:href="#BitstreamVeraSans-Roman-65"/>
       <use x="489.16015625" xlink:href="#BitstreamVeraSans-Roman-6b"/>
       <use x="547.0234375" xlink:href="#BitstreamVeraSans-Roman-65"/>
       <use x="608.546875" xlink:href="#BitstreamVeraSans-Roman-72"/>
       <use x="649.66015625" xlink:href="#BitstreamVeraSans-Roman-20"/>
      </g>
     </g>
    </g>
    <g id="xtick_2">
     <g id="line2d_3">
      <g>
       <use style="stroke:#000000;stroke-width:0.5;" x="77.0295" xlink:href="#m7c384863e3" y="368.74175"/>
      </g>
     </g>
     <g id="line2d_4">
      <g>
       <use style="stroke:#000000;stroke-width:0.5;" x="77.0295" xlink:href="#m606dda46b5" y="23.14175"/>
      </g>
     </g>
     <g id="text_2">
      <!--  Ancient Apparition  -->
      <defs>
       <path d="M 54.890625 33.015625 
L 54.890625 0 
L 45.90625 0 
L 45.90625 32.71875 
Q 45.90625 40.484375 42.875 44.328125 
Q 39.84375 48.1875 33.796875 48.1875 
Q 26.515625 48.1875 22.3125 43.546875 
Q 18.109375 38.921875 18.109375 30.90625 
L 18.109375 0 
L 9.078125 0 
L 9.078125 54.6875 
L 18.109375 54.6875 
L 18.109375 46.1875 
Q 21.34375 51.125 25.703125 53.5625 
Q 30.078125 56 35.796875 56 
Q 45.21875 56 50.046875 50.171875 
Q 54.890625 44.34375 54.890625 33.015625 
" id="BitstreamVeraSans-Roman-6e"/>
       <path d="M 9.421875 54.6875 
L 18.40625 54.6875 
L 18.40625 0 
L 9.421875 0 
z
M 9.421875 75.984375 
L 18.40625 75.984375 
L 18.40625 64.59375 
L 9.421875 64.59375 
z
" id="BitstreamVeraSans-Roman-69"/>
       <path d="M 48.78125 52.59375 
L 48.78125 44.1875 
Q 44.96875 46.296875 41.140625 47.34375 
Q 37.3125 48.390625 33.40625 48.390625 
Q 24.65625 48.390625 19.8125 42.84375 
Q 14.984375 37.3125 14.984375 27.296875 
Q 14.984375 17.28125 19.8125 11.734375 
Q 24.65625 6.203125 33.40625 6.203125 
Q 37.3125 6.203125 41.140625 7.25 
Q 44.96875 8.296875 48.78125 10.40625 
L 48.78125 2.09375 
Q 45.015625 0.34375 40.984375 -0.53125 
Q 36.96875 -1.421875 32.421875 -1.421875 
Q 20.0625 -1.421875 12.78125 6.34375 
Q 5.515625 14.109375 5.515625 27.296875 
Q 5.515625 40.671875 12.859375 48.328125 
Q 20.21875 56 33.015625 56 
Q 37.15625 56 41.109375 55.140625 
Q 45.0625 54.296875 48.78125 52.59375 
" id="BitstreamVeraSans-Roman-63"/>
       <path d="M 34.1875 63.1875 
L 20.796875 26.90625 
L 47.609375 26.90625 
z
M 28.609375 72.90625 
L 39.796875 72.90625 
L 67.578125 0 
L 57.328125 0 
L 50.6875 18.703125 
L 17.828125 18.703125 
L 11.1875 0 
L 0.78125 0 
z
" id="BitstreamVeraSans-Roman-41"/>
       <path d="M 18.3125 70.21875 
L 18.3125 54.6875 
L 36.8125 54.6875 
L 36.8125 47.703125 
L 18.3125 47.703125 
L 18.3125 18.015625 
Q 18.3125 11.328125 20.140625 9.421875 
Q 21.96875 7.515625 27.59375 7.515625 
L 36.8125 7.515625 
L 36.8125 0 
L 27.59375 0 
Q 17.1875 0 13.234375 3.875 
Q 9.28125 7.765625 9.28125 18.015625 
L 9.28125 47.703125 
L 2.6875 47.703125 
L 2.6875 54.6875 
L 9.28125 54.6875 
L 9.28125 70.21875 
z
" id="BitstreamVeraSans-Roman-74"/>
       <path d="M 34.28125 27.484375 
Q 23.390625 27.484375 19.1875 25 
Q 14.984375 22.515625 14.984375 16.5 
Q 14.984375 11.71875 18.140625 8.90625 
Q 21.296875 6.109375 26.703125 6.109375 
Q 34.1875 6.109375 38.703125 11.40625 
Q 43.21875 16.703125 43.21875 25.484375 
L 43.21875 27.484375 
z
M 52.203125 31.203125 
L 52.203125 0 
L 43.21875 0 
L 43.21875 8.296875 
Q 40.140625 3.328125 35.546875 0.953125 
Q 30.953125 -1.421875 24.3125 -1.421875 
Q 15.921875 -1.421875 10.953125 3.296875 
Q 6 8.015625 6 15.921875 
Q 6 25.140625 12.171875 29.828125 
Q 18.359375 34.515625 30.609375 34.515625 
L 43.21875 34.515625 
L 43.21875 35.40625 
Q 43.21875 41.609375 39.140625 45 
Q 35.0625 48.390625 27.6875 48.390625 
Q 23 48.390625 18.546875 47.265625 
Q 14.109375 46.140625 10.015625 43.890625 
L 10.015625 52.203125 
Q 14.9375 54.109375 19.578125 55.046875 
Q 24.21875 56 28.609375 56 
Q 40.484375 56 46.34375 49.84375 
Q 52.203125 43.703125 52.203125 31.203125 
" id="BitstreamVeraSans-Roman-61"/>
       <path d="M 18.109375 8.203125 
L 18.109375 -20.796875 
L 9.078125 -20.796875 
L 9.078125 54.6875 
L 18.109375 54.6875 
L 18.109375 46.390625 
Q 20.953125 51.265625 25.265625 53.625 
Q 29.59375 56 35.59375 56 
Q 45.5625 56 51.78125 48.09375 
Q 58.015625 40.1875 58.015625 27.296875 
Q 58.015625 14.40625 51.78125 6.484375 
Q 45.5625 -1.421875 35.59375 -1.421875 
Q 29.59375 -1.421875 25.265625 0.953125 
Q 20.953125 3.328125 18.109375 8.203125 
M 48.6875 27.296875 
Q 48.6875 37.203125 44.609375 42.84375 
Q 40.53125 48.484375 33.40625 48.484375 
Q 26.265625 48.484375 22.1875 42.84375 
Q 18.109375 37.203125 18.109375 27.296875 
Q 18.109375 17.390625 22.1875 11.75 
Q 26.265625 6.109375 33.40625 6.109375 
Q 40.53125 6.109375 44.609375 11.75 
Q 48.6875 17.390625 48.6875 27.296875 
" id="BitstreamVeraSans-Roman-70"/>
      </defs>
      <g transform="translate(80.34075 491.673)rotate(-90.0)scale(0.12 -0.12)">
       <use xlink:href="#BitstreamVeraSans-Roman-20"/>
       <use x="31.787109375" xlink:href="#BitstreamVeraSans-Roman-41"/>
       <use x="100.1953125" xlink:href="#BitstreamVeraSans-Roman-6e"/>
       <use x="163.57421875" xlink:href="#BitstreamVeraSans-Roman-63"/>
       <use x="218.5546875" xlink:href="#BitstreamVeraSans-Roman-69"/>
       <use x="246.337890625" xlink:href="#BitstreamVeraSans-Roman-65"/>
       <use x="307.861328125" xlink:href="#BitstreamVeraSans-Roman-6e"/>
       <use x="371.240234375" xlink:href="#BitstreamVeraSans-Roman-74"/>
       <use x="410.44921875" xlink:href="#BitstreamVeraSans-Roman-20"/>
       <use x="442.236328125" xlink:href="#BitstreamVeraSans-Roman-41"/>
       <use x="510.64453125" xlink:href="#BitstreamVeraSans-Roman-70"/>
       <use x="574.12109375" xlink:href="#BitstreamVeraSans-Roman-70"/>
       <use x="637.59765625" xlink:href="#BitstreamVeraSans-Roman-61"/>
       <use x="698.876953125" xlink:href="#BitstreamVeraSans-Roman-72"/>
       <use x="739.990234375" xlink:href="#BitstreamVeraSans-Roman-69"/>
       <use x="767.7734375" xlink:href="#BitstreamVeraSans-Roman-74"/>
       <use x="806.982421875" xlink:href="#BitstreamVeraSans-Roman-69"/>
       <use x="834.765625" xlink:href="#BitstreamVeraSans-Roman-6f"/>
       <use x="895.947265625" xlink:href="#BitstreamVeraSans-Roman-6e"/>
       <use x="959.326171875" xlink:href="#BitstreamVeraSans-Roman-20"/>
      </g>
     </g>
    </g>
    <g id="xtick_3">
     <g id="line2d_5">
      <g>
       <use style="stroke:#000000;stroke-width:0.5;" x="99.3495" xlink:href="#m7c384863e3" y="368.74175"/>
      </g>
     </g>
     <g id="line2d_6">
      <g>
       <use style="stroke:#000000;stroke-width:0.5;" x="99.3495" xlink:href="#m606dda46b5" y="23.14175"/>
      </g>
     </g>
     <g id="text_3">
      <!--  Nyx Assassin  -->
      <defs>
       <path d="M 9.8125 72.90625 
L 23.09375 72.90625 
L 55.421875 11.921875 
L 55.421875 72.90625 
L 64.984375 72.90625 
L 64.984375 0 
L 51.703125 0 
L 19.390625 60.984375 
L 19.390625 0 
L 9.8125 0 
z
" id="BitstreamVeraSans-Roman-4e"/>
       <path d="M 54.890625 54.6875 
L 35.109375 28.078125 
L 55.90625 0 
L 45.3125 0 
L 29.390625 21.484375 
L 13.484375 0 
L 2.875 0 
L 24.125 28.609375 
L 4.6875 54.6875 
L 15.28125 54.6875 
L 29.78125 35.203125 
L 44.28125 54.6875 
z
" id="BitstreamVeraSans-Roman-78"/>
       <path d="M 32.171875 -5.078125 
Q 28.375 -14.84375 24.75 -17.8125 
Q 21.140625 -20.796875 15.09375 -20.796875 
L 7.90625 -20.796875 
L 7.90625 -13.28125 
L 13.1875 -13.28125 
Q 16.890625 -13.28125 18.9375 -11.515625 
Q 21 -9.765625 23.484375 -3.21875 
L 25.09375 0.875 
L 2.984375 54.6875 
L 12.5 54.6875 
L 29.59375 11.921875 
L 46.6875 54.6875 
L 56.203125 54.6875 
z
" id="BitstreamVeraSans-Roman-79"/>
      </defs>
      <g transform="translate(102.66075 458.87175)rotate(-90.0)scale(0.12 -0.12)">
       <use xlink:href="#BitstreamVeraSans-Roman-20"/>
       <use x="31.787109375" xlink:href="#BitstreamVeraSans-Roman-4e"/>
       <use x="106.591796875" xlink:href="#BitstreamVeraSans-Roman-79"/>
       <use x="165.771484375" xlink:href="#BitstreamVeraSans-Roman-78"/>
       <use x="224.951171875" xlink:href="#BitstreamVeraSans-Roman-20"/>
       <use x="256.73828125" xlink:href="#BitstreamVeraSans-Roman-41"/>
       <use x="325.146484375" xlink:href="#BitstreamVeraSans-Roman-73"/>
       <use x="377.24609375" xlink:href="#BitstreamVeraSans-Roman-73"/>
       <use x="429.345703125" xlink:href="#BitstreamVeraSans-Roman-61"/>
       <use x="490.625" xlink:href="#BitstreamVeraSans-Roman-73"/>
       <use x="542.724609375" xlink:href="#BitstreamVeraSans-Roman-73"/>
       <use x="594.82421875" xlink:href="#BitstreamVeraSans-Roman-69"/>
       <use x="622.607421875" xlink:href="#BitstreamVeraSans-Roman-6e"/>
       <use x="685.986328125" xlink:href="#BitstreamVeraSans-Roman-20"/>
      </g>
     </g>
    </g>
    <g id="xtick_4">
     <g id="line2d_7">
      <g>
       <use style="stroke:#000000;stroke-width:0.5;" x="121.6695" xlink:href="#m7c384863e3" y="368.74175"/>
      </g>
     </g>
     <g id="line2d_8">
      <g>
       <use style="stroke:#000000;stroke-width:0.5;" x="121.6695" xlink:href="#m606dda46b5" y="23.14175"/>
      </g>
     </g>
     <g id="text_4">
      <!--  Earthshaker  -->
      <defs>
       <path d="M 9.8125 72.90625 
L 55.90625 72.90625 
L 55.90625 64.59375 
L 19.671875 64.59375 
L 19.671875 43.015625 
L 54.390625 43.015625 
L 54.390625 34.71875 
L 19.671875 34.71875 
L 19.671875 8.296875 
L 56.78125 8.296875 
L 56.78125 0 
L 9.8125 0 
z
" id="BitstreamVeraSans-Roman-45"/>
       <path d="M 54.890625 33.015625 
L 54.890625 0 
L 45.90625 0 
L 45.90625 32.71875 
Q 45.90625 40.484375 42.875 44.328125 
Q 39.84375 48.1875 33.796875 48.1875 
Q 26.515625 48.1875 22.3125 43.546875 
Q 18.109375 38.921875 18.109375 30.90625 
L 18.109375 0 
L 9.078125 0 
L 9.078125 75.984375 
L 18.109375 75.984375 
L 18.109375 46.1875 
Q 21.34375 51.125 25.703125 53.5625 
Q 30.078125 56 35.796875 56 
Q 45.21875 56 50.046875 50.171875 
Q 54.890625 44.34375 54.890625 33.015625 
" id="BitstreamVeraSans-Roman-68"/>
      </defs>
      <g transform="translate(124.98075 453.018)rotate(-90.0)scale(0.12 -0.12)">
       <use xlink:href="#BitstreamVeraSans-Roman-20"/>
       <use x="31.787109375" xlink:href="#BitstreamVeraSans-Roman-45"/>
       <use x="94.970703125" xlink:href="#BitstreamVeraSans-Roman-61"/>
       <use x="156.25" xlink:href="#BitstreamVeraSans-Roman-72"/>
       <use x="197.36328125" xlink:href="#BitstreamVeraSans-Roman-74"/>
       <use x="236.572265625" xlink:href="#BitstreamVeraSans-Roman-68"/>
       <use x="299.951171875" xlink:href="#BitstreamVeraSans-Roman-73"/>
       <use x="352.05078125" xlink:href="#BitstreamVeraSans-Roman-68"/>
       <use x="415.4296875" xlink:href="#BitstreamVeraSans-Roman-61"/>
       <use x="476.708984375" xlink:href="#BitstreamVeraSans-Roman-6b"/>
       <use x="534.572265625" xlink:href="#BitstreamVeraSans-Roman-65"/>
       <use x="596.095703125" xlink:href="#BitstreamVeraSans-Roman-72"/>
       <use x="637.208984375" xlink:href="#BitstreamVeraSans-Roman-20"/>
      </g>
     </g>
    </g>
    <g id="xtick_5">
     <g id="line2d_9">
      <g>
       <use style="stroke:#000000;stroke-width:0.5;" x="143.9895" xlink:href="#m7c384863e3" y="368.74175"/>
      </g>
     </g>
     <g id="line2d_10">
      <g>
       <use style="stroke:#000000;stroke-width:0.5;" x="143.9895" xlink:href="#m606dda46b5" y="23.14175"/>
      </g>
     </g>
     <g id="text_5">
      <!--  Abaddon  -->
      <defs>
       <path d="M 48.6875 27.296875 
Q 48.6875 37.203125 44.609375 42.84375 
Q 40.53125 48.484375 33.40625 48.484375 
Q 26.265625 48.484375 22.1875 42.84375 
Q 18.109375 37.203125 18.109375 27.296875 
Q 18.109375 17.390625 22.1875 11.75 
Q 26.265625 6.109375 33.40625 6.109375 
Q 40.53125 6.109375 44.609375 11.75 
Q 48.6875 17.390625 48.6875 27.296875 
M 18.109375 46.390625 
Q 20.953125 51.265625 25.265625 53.625 
Q 29.59375 56 35.59375 56 
Q 45.5625 56 51.78125 48.09375 
Q 58.015625 40.1875 58.015625 27.296875 
Q 58.015625 14.40625 51.78125 6.484375 
Q 45.5625 -1.421875 35.59375 -1.421875 
Q 29.59375 -1.421875 25.265625 0.953125 
Q 20.953125 3.328125 18.109375 8.203125 
L 18.109375 0 
L 9.078125 0 
L 9.078125 75.984375 
L 18.109375 75.984375 
z
" id="BitstreamVeraSans-Roman-62"/>
      </defs>
      <g transform="translate(147.30075 433.733625)rotate(-90.0)scale(0.12 -0.12)">
       <use xlink:href="#BitstreamVeraSans-Roman-20"/>
       <use x="31.787109375" xlink:href="#BitstreamVeraSans-Roman-41"/>
       <use x="100.1953125" xlink:href="#BitstreamVeraSans-Roman-62"/>
       <use x="163.671875" xlink:href="#BitstreamVeraSans-Roman-61"/>
       <use x="224.951171875" xlink:href="#BitstreamVeraSans-Roman-64"/>
       <use x="288.427734375" xlink:href="#BitstreamVeraSans-Roman-64"/>
       <use x="351.904296875" xlink:href="#BitstreamVeraSans-Roman-6f"/>
       <use x="413.0859375" xlink:href="#BitstreamVeraSans-Roman-6e"/>
       <use x="476.46484375" xlink:href="#BitstreamVeraSans-Roman-20"/>
      </g>
     </g>
    </g>
    <g id="xtick_6">
     <g id="line2d_11">
      <g>
       <use style="stroke:#000000;stroke-width:0.5;" x="166.3095" xlink:href="#m7c384863e3" y="368.74175"/>
      </g>
     </g>
     <g id="line2d_12">
      <g>
       <use style="stroke:#000000;stroke-width:0.5;" x="166.3095" xlink:href="#m606dda46b5" y="23.14175"/>
      </g>
     </g>
     <g id="text_6">
      <!--  Morphling  -->
      <defs>
       <path d="M 45.40625 27.984375 
Q 45.40625 37.75 41.375 43.109375 
Q 37.359375 48.484375 30.078125 48.484375 
Q 22.859375 48.484375 18.828125 43.109375 
Q 14.796875 37.75 14.796875 27.984375 
Q 14.796875 18.265625 18.828125 12.890625 
Q 22.859375 7.515625 30.078125 7.515625 
Q 37.359375 7.515625 41.375 12.890625 
Q 45.40625 18.265625 45.40625 27.984375 
M 54.390625 6.78125 
Q 54.390625 -7.171875 48.1875 -13.984375 
Q 42 -20.796875 29.203125 -20.796875 
Q 24.46875 -20.796875 20.265625 -20.09375 
Q 16.0625 -19.390625 12.109375 -17.921875 
L 12.109375 -9.1875 
Q 16.0625 -11.328125 19.921875 -12.34375 
Q 23.78125 -13.375 27.78125 -13.375 
Q 36.625 -13.375 41.015625 -8.765625 
Q 45.40625 -4.15625 45.40625 5.171875 
L 45.40625 9.625 
Q 42.625 4.78125 38.28125 2.390625 
Q 33.9375 0 27.875 0 
Q 17.828125 0 11.671875 7.65625 
Q 5.515625 15.328125 5.515625 27.984375 
Q 5.515625 40.671875 11.671875 48.328125 
Q 17.828125 56 27.875 56 
Q 33.9375 56 38.28125 53.609375 
Q 42.625 51.21875 45.40625 46.390625 
L 45.40625 54.6875 
L 54.390625 54.6875 
z
" id="BitstreamVeraSans-Roman-67"/>
       <path d="M 9.8125 72.90625 
L 24.515625 72.90625 
L 43.109375 23.296875 
L 61.8125 72.90625 
L 76.515625 72.90625 
L 76.515625 0 
L 66.890625 0 
L 66.890625 64.015625 
L 48.09375 14.015625 
L 38.1875 14.015625 
L 19.390625 64.015625 
L 19.390625 0 
L 9.8125 0 
z
" id="BitstreamVeraSans-Roman-4d"/>
      </defs>
      <g transform="translate(169.62075 440.112375)rotate(-90.0)scale(0.12 -0.12)">
       <use xlink:href="#BitstreamVeraSans-Roman-20"/>
       <use x="31.787109375" xlink:href="#BitstreamVeraSans-Roman-4d"/>
       <use x="118.06640625" xlink:href="#BitstreamVeraSans-Roman-6f"/>
       <use x="179.248046875" xlink:href="#BitstreamVeraSans-Roman-72"/>
       <use x="220.361328125" xlink:href="#BitstreamVeraSans-Roman-70"/>
       <use x="283.837890625" xlink:href="#BitstreamVeraSans-Roman-68"/>
       <use x="347.216796875" xlink:href="#BitstreamVeraSans-Roman-6c"/>
       <use x="375.0" xlink:href="#BitstreamVeraSans-Roman-69"/>
       <use x="402.783203125" xlink:href="#BitstreamVeraSans-Roman-6e"/>
       <use x="466.162109375" xlink:href="#BitstreamVeraSans-Roman-67"/>
       <use x="529.638671875" xlink:href="#BitstreamVeraSans-Roman-20"/>
      </g>
     </g>
    </g>
    <g id="xtick_7">
     <g id="line2d_13">
      <g>
       <use style="stroke:#000000;stroke-width:0.5;" x="188.6295" xlink:href="#m7c384863e3" y="368.74175"/>
      </g>
     </g>
     <g id="line2d_14">
      <g>
       <use style="stroke:#000000;stroke-width:0.5;" x="188.6295" xlink:href="#m606dda46b5" y="23.14175"/>
      </g>
     </g>
     <g id="text_7">
      <!--  Anti-Mage  -->
      <defs>
       <path d="M 4.890625 31.390625 
L 31.203125 31.390625 
L 31.203125 23.390625 
L 4.890625 23.390625 
z
" id="BitstreamVeraSans-Roman-2d"/>
      </defs>
      <g transform="translate(191.94075 441.259875)rotate(-90.0)scale(0.12 -0.12)">
       <use xlink:href="#BitstreamVeraSans-Roman-20"/>
       <use x="31.787109375" xlink:href="#BitstreamVeraSans-Roman-41"/>
       <use x="100.1953125" xlink:href="#BitstreamVeraSans-Roman-6e"/>
       <use x="163.57421875" xlink:href="#BitstreamVeraSans-Roman-74"/>
       <use x="202.783203125" xlink:href="#BitstreamVeraSans-Roman-69"/>
       <use x="230.56640625" xlink:href="#BitstreamVeraSans-Roman-2d"/>
       <use x="266.650390625" xlink:href="#BitstreamVeraSans-Roman-4d"/>
       <use x="352.9296875" xlink:href="#BitstreamVeraSans-Roman-61"/>
       <use x="414.208984375" xlink:href="#BitstreamVeraSans-Roman-67"/>
       <use x="477.685546875" xlink:href="#BitstreamVeraSans-Roman-65"/>
       <use x="539.208984375" xlink:href="#BitstreamVeraSans-Roman-20"/>
      </g>
     </g>
    </g>
    <g id="xtick_8">
     <g id="line2d_15">
      <g>
       <use style="stroke:#000000;stroke-width:0.5;" x="210.9495" xlink:href="#m7c384863e3" y="368.74175"/>
      </g>
     </g>
     <g id="line2d_16">
      <g>
       <use style="stroke:#000000;stroke-width:0.5;" x="210.9495" xlink:href="#m606dda46b5" y="23.14175"/>
      </g>
     </g>
     <g id="text_8">
      <!--  Invoker  -->
      <defs>
       <path d="M 2.984375 54.6875 
L 12.5 54.6875 
L 29.59375 8.796875 
L 46.6875 54.6875 
L 56.203125 54.6875 
L 35.6875 0 
L 23.484375 0 
z
" id="BitstreamVeraSans-Roman-76"/>
       <path d="M 9.8125 72.90625 
L 19.671875 72.90625 
L 19.671875 0 
L 9.8125 0 
z
" id="BitstreamVeraSans-Roman-49"/>
      </defs>
      <g transform="translate(214.26075 425.21925)rotate(-90.0)scale(0.12 -0.12)">
       <use xlink:href="#BitstreamVeraSans-Roman-20"/>
       <use x="31.787109375" xlink:href="#BitstreamVeraSans-Roman-49"/>
       <use x="61.279296875" xlink:href="#BitstreamVeraSans-Roman-6e"/>
       <use x="124.658203125" xlink:href="#BitstreamVeraSans-Roman-76"/>
       <use x="183.837890625" xlink:href="#BitstreamVeraSans-Roman-6f"/>
       <use x="245.01953125" xlink:href="#BitstreamVeraSans-Roman-6b"/>
       <use x="302.8828125" xlink:href="#BitstreamVeraSans-Roman-65"/>
       <use x="364.40625" xlink:href="#BitstreamVeraSans-Roman-72"/>
       <use x="405.51953125" xlink:href="#BitstreamVeraSans-Roman-20"/>
      </g>
     </g>
    </g>
    <g id="xtick_9">
     <g id="line2d_17">
      <g>
       <use style="stroke:#000000;stroke-width:0.5;" x="233.2695" xlink:href="#m7c384863e3" y="368.74175"/>
      </g>
     </g>
     <g id="line2d_18">
      <g>
       <use style="stroke:#000000;stroke-width:0.5;" x="233.2695" xlink:href="#m606dda46b5" y="23.14175"/>
      </g>
     </g>
     <g id="text_9">
      <!--  Slark  -->
      <defs>
       <path d="M 53.515625 70.515625 
L 53.515625 60.890625 
Q 47.90625 63.578125 42.921875 64.890625 
Q 37.9375 66.21875 33.296875 66.21875 
Q 25.25 66.21875 20.875 63.09375 
Q 16.5 59.96875 16.5 54.203125 
Q 16.5 49.359375 19.40625 46.890625 
Q 22.3125 44.4375 30.421875 42.921875 
L 36.375 41.703125 
Q 47.40625 39.59375 52.65625 34.296875 
Q 57.90625 29 57.90625 20.125 
Q 57.90625 9.515625 50.796875 4.046875 
Q 43.703125 -1.421875 29.984375 -1.421875 
Q 24.8125 -1.421875 18.96875 -0.25 
Q 13.140625 0.921875 6.890625 3.21875 
L 6.890625 13.375 
Q 12.890625 10.015625 18.65625 8.296875 
Q 24.421875 6.59375 29.984375 6.59375 
Q 38.421875 6.59375 43.015625 9.90625 
Q 47.609375 13.234375 47.609375 19.390625 
Q 47.609375 24.75 44.3125 27.78125 
Q 41.015625 30.8125 33.5 32.328125 
L 27.484375 33.5 
Q 16.453125 35.6875 11.515625 40.375 
Q 6.59375 45.0625 6.59375 53.421875 
Q 6.59375 63.09375 13.40625 68.65625 
Q 20.21875 74.21875 32.171875 74.21875 
Q 37.3125 74.21875 42.625 73.28125 
Q 47.953125 72.359375 53.515625 70.515625 
" id="BitstreamVeraSans-Roman-53"/>
      </defs>
      <g transform="translate(236.58075 410.55675)rotate(-90.0)scale(0.12 -0.12)">
       <use xlink:href="#BitstreamVeraSans-Roman-20"/>
       <use x="31.787109375" xlink:href="#BitstreamVeraSans-Roman-53"/>
       <use x="95.263671875" xlink:href="#BitstreamVeraSans-Roman-6c"/>
       <use x="123.046875" xlink:href="#BitstreamVeraSans-Roman-61"/>
       <use x="184.326171875" xlink:href="#BitstreamVeraSans-Roman-72"/>
       <use x="225.439453125" xlink:href="#BitstreamVeraSans-Roman-6b"/>
       <use x="283.349609375" xlink:href="#BitstreamVeraSans-Roman-20"/>
      </g>
     </g>
    </g>
    <g id="xtick_10">
     <g id="line2d_19">
      <g>
       <use style="stroke:#000000;stroke-width:0.5;" x="255.5895" xlink:href="#m7c384863e3" y="368.74175"/>
      </g>
     </g>
     <g id="line2d_20">
      <g>
       <use style="stroke:#000000;stroke-width:0.5;" x="255.5895" xlink:href="#m606dda46b5" y="23.14175"/>
      </g>
     </g>
     <g id="text_10">
      <!--  Puck  -->
      <defs>
       <path d="M 19.671875 64.796875 
L 19.671875 37.40625 
L 32.078125 37.40625 
Q 38.96875 37.40625 42.71875 40.96875 
Q 46.484375 44.53125 46.484375 51.125 
Q 46.484375 57.671875 42.71875 61.234375 
Q 38.96875 64.796875 32.078125 64.796875 
z
M 9.8125 72.90625 
L 32.078125 72.90625 
Q 44.34375 72.90625 50.609375 67.359375 
Q 56.890625 61.8125 56.890625 51.125 
Q 56.890625 40.328125 50.609375 34.8125 
Q 44.34375 29.296875 32.078125 29.296875 
L 19.671875 29.296875 
L 19.671875 0 
L 9.8125 0 
z
" id="BitstreamVeraSans-Roman-50"/>
       <path d="M 8.5 21.578125 
L 8.5 54.6875 
L 17.484375 54.6875 
L 17.484375 21.921875 
Q 17.484375 14.15625 20.5 10.265625 
Q 23.53125 6.390625 29.59375 6.390625 
Q 36.859375 6.390625 41.078125 11.03125 
Q 45.3125 15.671875 45.3125 23.6875 
L 45.3125 54.6875 
L 54.296875 54.6875 
L 54.296875 0 
L 45.3125 0 
L 45.3125 8.40625 
Q 42.046875 3.421875 37.71875 1 
Q 33.40625 -1.421875 27.6875 -1.421875 
Q 18.265625 -1.421875 13.375 4.4375 
Q 8.5 10.296875 8.5 21.578125 
" id="BitstreamVeraSans-Roman-75"/>
      </defs>
      <g transform="translate(258.90075 408.754875)rotate(-90.0)scale(0.12 -0.12)">
       <use xlink:href="#BitstreamVeraSans-Roman-20"/>
       <use x="31.787109375" xlink:href="#BitstreamVeraSans-Roman-50"/>
       <use x="92.07421875" xlink:href="#BitstreamVeraSans-Roman-75"/>
       <use x="155.453125" xlink:href="#BitstreamVeraSans-Roman-63"/>
       <use x="210.43359375" xlink:href="#BitstreamVeraSans-Roman-6b"/>
       <use x="268.34375" xlink:href="#BitstreamVeraSans-Roman-20"/>
      </g>
     </g>
    </g>
    <g id="xtick_11">
     <g id="line2d_21">
      <g>
       <use style="stroke:#000000;stroke-width:0.5;" x="277.9095" xlink:href="#m7c384863e3" y="368.74175"/>
      </g>
     </g>
     <g id="line2d_22">
      <g>
       <use style="stroke:#000000;stroke-width:0.5;" x="277.9095" xlink:href="#m606dda46b5" y="23.14175"/>
      </g>
     </g>
     <g id="text_11">
      <!--  Skywrath Mage  -->
      <defs>
       <path d="M 4.203125 54.6875 
L 13.1875 54.6875 
L 24.421875 12.015625 
L 35.59375 54.6875 
L 46.1875 54.6875 
L 57.421875 12.015625 
L 68.609375 54.6875 
L 77.59375 54.6875 
L 63.28125 0 
L 52.6875 0 
L 40.921875 44.828125 
L 29.109375 0 
L 18.5 0 
z
" id="BitstreamVeraSans-Roman-77"/>
      </defs>
      <g transform="translate(281.22075 472.966125)rotate(-90.0)scale(0.12 -0.12)">
       <use xlink:href="#BitstreamVeraSans-Roman-20"/>
       <use x="31.787109375" xlink:href="#BitstreamVeraSans-Roman-53"/>
       <use x="95.263671875" xlink:href="#BitstreamVeraSans-Roman-6b"/>
       <use x="153.126953125" xlink:href="#BitstreamVeraSans-Roman-79"/>
       <use x="212.306640625" xlink:href="#BitstreamVeraSans-Roman-77"/>
       <use x="294.09375" xlink:href="#BitstreamVeraSans-Roman-72"/>
       <use x="335.20703125" xlink:href="#BitstreamVeraSans-Roman-61"/>
       <use x="396.486328125" xlink:href="#BitstreamVeraSans-Roman-74"/>
       <use x="435.6953125" xlink:href="#BitstreamVeraSans-Roman-68"/>
       <use x="499.07421875" xlink:href="#BitstreamVeraSans-Roman-20"/>
       <use x="530.861328125" xlink:href="#BitstreamVeraSans-Roman-4d"/>
       <use x="617.140625" xlink:href="#BitstreamVeraSans-Roman-61"/>
       <use x="678.419921875" xlink:href="#BitstreamVeraSans-Roman-67"/>
       <use x="741.896484375" xlink:href="#BitstreamVeraSans-Roman-65"/>
       <use x="803.419921875" xlink:href="#BitstreamVeraSans-Roman-20"/>
      </g>
     </g>
    </g>
    <g id="xtick_12">
     <g id="line2d_23">
      <g>
       <use style="stroke:#000000;stroke-width:0.5;" x="300.2295" xlink:href="#m7c384863e3" y="368.74175"/>
      </g>
     </g>
     <g id="line2d_24">
      <g>
       <use style="stroke:#000000;stroke-width:0.5;" x="300.2295" xlink:href="#m606dda46b5" y="23.14175"/>
      </g>
     </g>
     <g id="text_12">
      <!--  Dazzle  -->
      <defs>
       <path d="M 19.671875 64.796875 
L 19.671875 8.109375 
L 31.59375 8.109375 
Q 46.6875 8.109375 53.6875 14.9375 
Q 60.6875 21.78125 60.6875 36.53125 
Q 60.6875 51.171875 53.6875 57.984375 
Q 46.6875 64.796875 31.59375 64.796875 
z
M 9.8125 72.90625 
L 30.078125 72.90625 
Q 51.265625 72.90625 61.171875 64.09375 
Q 71.09375 55.28125 71.09375 36.53125 
Q 71.09375 17.671875 61.125 8.828125 
Q 51.171875 0 30.078125 0 
L 9.8125 0 
z
" id="BitstreamVeraSans-Roman-44"/>
       <path d="M 5.515625 54.6875 
L 48.1875 54.6875 
L 48.1875 46.484375 
L 14.40625 7.171875 
L 48.1875 7.171875 
L 48.1875 0 
L 4.296875 0 
L 4.296875 8.203125 
L 38.09375 47.515625 
L 5.515625 47.515625 
z
" id="BitstreamVeraSans-Roman-7a"/>
      </defs>
      <g transform="translate(303.54075 420.27675)rotate(-90.0)scale(0.12 -0.12)">
       <use xlink:href="#BitstreamVeraSans-Roman-20"/>
       <use x="31.787109375" xlink:href="#BitstreamVeraSans-Roman-44"/>
       <use x="108.7890625" xlink:href="#BitstreamVeraSans-Roman-61"/>
       <use x="170.068359375" xlink:href="#BitstreamVeraSans-Roman-7a"/>
       <use x="222.55859375" xlink:href="#BitstreamVeraSans-Roman-7a"/>
       <use x="275.048828125" xlink:href="#BitstreamVeraSans-Roman-6c"/>
       <use x="302.83203125" xlink:href="#BitstreamVeraSans-Roman-65"/>
       <use x="364.35546875" xlink:href="#BitstreamVeraSans-Roman-20"/>
      </g>
     </g>
    </g>
    <g id="xtick_13">
     <g id="line2d_25">
      <g>
       <use style="stroke:#000000;stroke-width:0.5;" x="322.5495" xlink:href="#m7c384863e3" y="368.74175"/>
      </g>
     </g>
     <g id="line2d_26">
      <g>
       <use style="stroke:#000000;stroke-width:0.5;" x="322.5495" xlink:href="#m606dda46b5" y="23.14175"/>
      </g>
     </g>
     <g id="text_13">
      <!--  Sniper  -->
      <g transform="translate(325.86075 418.861125)rotate(-90.0)scale(0.12 -0.12)">
       <use xlink:href="#BitstreamVeraSans-Roman-20"/>
       <use x="31.787109375" xlink:href="#BitstreamVeraSans-Roman-53"/>
       <use x="95.263671875" xlink:href="#BitstreamVeraSans-Roman-6e"/>
       <use x="158.642578125" xlink:href="#BitstreamVeraSans-Roman-69"/>
       <use x="186.42578125" xlink:href="#BitstreamVeraSans-Roman-70"/>
       <use x="249.90234375" xlink:href="#BitstreamVeraSans-Roman-65"/>
       <use x="311.42578125" xlink:href="#BitstreamVeraSans-Roman-72"/>
       <use x="352.5390625" xlink:href="#BitstreamVeraSans-Roman-20"/>
      </g>
     </g>
    </g>
    <g id="xtick_14">
     <g id="line2d_27">
      <g>
       <use style="stroke:#000000;stroke-width:0.5;" x="344.8695" xlink:href="#m7c384863e3" y="368.74175"/>
      </g>
     </g>
     <g id="line2d_28">
      <g>
       <use style="stroke:#000000;stroke-width:0.5;" x="344.8695" xlink:href="#m606dda46b5" y="23.14175"/>
      </g>
     </g>
     <g id="text_14">
      <!--  Dragon Knight  -->
      <defs>
       <path d="M 9.8125 72.90625 
L 19.671875 72.90625 
L 19.671875 42.09375 
L 52.390625 72.90625 
L 65.09375 72.90625 
L 28.90625 38.921875 
L 67.671875 0 
L 54.6875 0 
L 19.671875 35.109375 
L 19.671875 0 
L 9.8125 0 
z
" id="BitstreamVeraSans-Roman-4b"/>
      </defs>
      <g transform="translate(348.18075 467.011125)rotate(-90.0)scale(0.12 -0.12)">
       <use xlink:href="#BitstreamVeraSans-Roman-20"/>
       <use x="31.787109375" xlink:href="#BitstreamVeraSans-Roman-44"/>
       <use x="108.7890625" xlink:href="#BitstreamVeraSans-Roman-72"/>
       <use x="149.90234375" xlink:href="#BitstreamVeraSans-Roman-61"/>
       <use x="211.181640625" xlink:href="#BitstreamVeraSans-Roman-67"/>
       <use x="274.658203125" xlink:href="#BitstreamVeraSans-Roman-6f"/>
       <use x="335.83984375" xlink:href="#BitstreamVeraSans-Roman-6e"/>
       <use x="399.21875" xlink:href="#BitstreamVeraSans-Roman-20"/>
       <use x="431.005859375" xlink:href="#BitstreamVeraSans-Roman-4b"/>
       <use x="496.58203125" xlink:href="#BitstreamVeraSans-Roman-6e"/>
       <use x="559.9609375" xlink:href="#BitstreamVeraSans-Roman-69"/>
       <use x="587.744140625" xlink:href="#BitstreamVeraSans-Roman-67"/>
       <use x="651.220703125" xlink:href="#BitstreamVeraSans-Roman-68"/>
       <use x="714.599609375" xlink:href="#BitstreamVeraSans-Roman-74"/>
       <use x="753.80859375" xlink:href="#BitstreamVeraSans-Roman-20"/>
      </g>
     </g>
    </g>
    <g id="xtick_15">
     <g id="line2d_29">
      <g>
       <use style="stroke:#000000;stroke-width:0.5;" x="367.1895" xlink:href="#m7c384863e3" y="368.74175"/>
      </g>
     </g>
     <g id="line2d_30">
      <g>
       <use style="stroke:#000000;stroke-width:0.5;" x="367.1895" xlink:href="#m606dda46b5" y="23.14175"/>
      </g>
     </g>
     <g id="text_15">
      <!--  Weaver  -->
      <defs>
       <path d="M 3.328125 72.90625 
L 13.28125 72.90625 
L 28.609375 11.28125 
L 43.890625 72.90625 
L 54.984375 72.90625 
L 70.3125 11.28125 
L 85.59375 72.90625 
L 95.609375 72.90625 
L 77.296875 0 
L 64.890625 0 
L 49.515625 63.28125 
L 33.984375 0 
L 21.578125 0 
z
" id="BitstreamVeraSans-Roman-57"/>
      </defs>
      <g transform="translate(370.50075 426.38175)rotate(-90.0)scale(0.12 -0.12)">
       <use xlink:href="#BitstreamVeraSans-Roman-20"/>
       <use x="31.787109375" xlink:href="#BitstreamVeraSans-Roman-57"/>
       <use x="130.5859375" xlink:href="#BitstreamVeraSans-Roman-65"/>
       <use x="192.109375" xlink:href="#BitstreamVeraSans-Roman-61"/>
       <use x="253.388671875" xlink:href="#BitstreamVeraSans-Roman-76"/>
       <use x="312.568359375" xlink:href="#BitstreamVeraSans-Roman-65"/>
       <use x="374.091796875" xlink:href="#BitstreamVeraSans-Roman-72"/>
       <use x="415.205078125" xlink:href="#BitstreamVeraSans-Roman-20"/>
      </g>
     </g>
    </g>
    <g id="xtick_16">
     <g id="line2d_31">
      <g>
       <use style="stroke:#000000;stroke-width:0.5;" x="389.5095" xlink:href="#m7c384863e3" y="368.74175"/>
      </g>
     </g>
     <g id="line2d_32">
      <g>
       <use style="stroke:#000000;stroke-width:0.5;" x="389.5095" xlink:href="#m606dda46b5" y="23.14175"/>
      </g>
     </g>
     <g id="text_16">
      <!--  Shadow Shaman  -->
      <defs>
       <path d="M 52 44.1875 
Q 55.375 50.25 60.0625 53.125 
Q 64.75 56 71.09375 56 
Q 79.640625 56 84.28125 50.015625 
Q 88.921875 44.046875 88.921875 33.015625 
L 88.921875 0 
L 79.890625 0 
L 79.890625 32.71875 
Q 79.890625 40.578125 77.09375 44.375 
Q 74.3125 48.1875 68.609375 48.1875 
Q 61.625 48.1875 57.5625 43.546875 
Q 53.515625 38.921875 53.515625 30.90625 
L 53.515625 0 
L 44.484375 0 
L 44.484375 32.71875 
Q 44.484375 40.625 41.703125 44.40625 
Q 38.921875 48.1875 33.109375 48.1875 
Q 26.21875 48.1875 22.15625 43.53125 
Q 18.109375 38.875 18.109375 30.90625 
L 18.109375 0 
L 9.078125 0 
L 9.078125 54.6875 
L 18.109375 54.6875 
L 18.109375 46.1875 
Q 21.1875 51.21875 25.484375 53.609375 
Q 29.78125 56 35.6875 56 
Q 41.65625 56 45.828125 52.96875 
Q 50 49.953125 52 44.1875 
" id="BitstreamVeraSans-Roman-6d"/>
      </defs>
      <g transform="translate(392.82075 480.758625)rotate(-90.0)scale(0.12 -0.12)">
       <use xlink:href="#BitstreamVeraSans-Roman-20"/>
       <use x="31.787109375" xlink:href="#BitstreamVeraSans-Roman-53"/>
       <use x="95.263671875" xlink:href="#BitstreamVeraSans-Roman-68"/>
       <use x="158.642578125" xlink:href="#BitstreamVeraSans-Roman-61"/>
       <use x="219.921875" xlink:href="#BitstreamVeraSans-Roman-64"/>
       <use x="283.3984375" xlink:href="#BitstreamVeraSans-Roman-6f"/>
       <use x="344.580078125" xlink:href="#BitstreamVeraSans-Roman-77"/>
       <use x="426.3671875" xlink:href="#BitstreamVeraSans-Roman-20"/>
       <use x="458.154296875" xlink:href="#BitstreamVeraSans-Roman-53"/>
       <use x="521.630859375" xlink:href="#BitstreamVeraSans-Roman-68"/>
       <use x="585.009765625" xlink:href="#BitstreamVeraSans-Roman-61"/>
       <use x="646.2890625" xlink:href="#BitstreamVeraSans-Roman-6d"/>
       <use x="743.701171875" xlink:href="#BitstreamVeraSans-Roman-61"/>
       <use x="804.98046875" xlink:href="#BitstreamVeraSans-Roman-6e"/>
       <use x="868.359375" xlink:href="#BitstreamVeraSans-Roman-20"/>
      </g>
     </g>
    </g>
    <g id="xtick_17">
     <g id="line2d_33">
      <g>
       <use style="stroke:#000000;stroke-width:0.5;" x="411.8295" xlink:href="#m7c384863e3" y="368.74175"/>
      </g>
     </g>
     <g id="line2d_34">
      <g>
       <use style="stroke:#000000;stroke-width:0.5;" x="411.8295" xlink:href="#m606dda46b5" y="23.14175"/>
      </g>
     </g>
     <g id="text_17">
      <!--  Bane  -->
      <g transform="translate(415.14075 410.944875)rotate(-90.0)scale(0.12 -0.12)">
       <use xlink:href="#BitstreamVeraSans-Roman-20"/>
       <use x="31.787109375" xlink:href="#BitstreamVeraSans-Roman-42"/>
       <use x="100.390625" xlink:href="#BitstreamVeraSans-Roman-61"/>
       <use x="161.669921875" xlink:href="#BitstreamVeraSans-Roman-6e"/>
       <use x="225.048828125" xlink:href="#BitstreamVeraSans-Roman-65"/>
       <use x="286.572265625" xlink:href="#BitstreamVeraSans-Roman-20"/>
      </g>
     </g>
    </g>
    <g id="xtick_18">
     <g id="line2d_35">
      <g>
       <use style="stroke:#000000;stroke-width:0.5;" x="434.1495" xlink:href="#m7c384863e3" y="368.74175"/>
      </g>
     </g>
     <g id="line2d_36">
      <g>
       <use style="stroke:#000000;stroke-width:0.5;" x="434.1495" xlink:href="#m606dda46b5" y="23.14175"/>
      </g>
     </g>
     <g id="text_18">
      <!--  Tiny  -->
      <defs>
       <path d="M -0.296875 72.90625 
L 61.375 72.90625 
L 61.375 64.59375 
L 35.5 64.59375 
L 35.5 0 
L 25.59375 0 
L 25.59375 64.59375 
L -0.296875 64.59375 
z
" id="BitstreamVeraSans-Roman-54"/>
      </defs>
      <g transform="translate(437.46075 405.73425)rotate(-90.0)scale(0.12 -0.12)">
       <use xlink:href="#BitstreamVeraSans-Roman-20"/>
       <use x="31.787109375" xlink:href="#BitstreamVeraSans-Roman-54"/>
       <use x="92.82421875" xlink:href="#BitstreamVeraSans-Roman-69"/>
       <use x="120.607421875" xlink:href="#BitstreamVeraSans-Roman-6e"/>
       <use x="183.986328125" xlink:href="#BitstreamVeraSans-Roman-79"/>
       <use x="243.166015625" xlink:href="#BitstreamVeraSans-Roman-20"/>
      </g>
     </g>
    </g>
    <g id="xtick_19">
     <g id="line2d_37">
      <g>
       <use style="stroke:#000000;stroke-width:0.5;" x="456.4695" xlink:href="#m7c384863e3" y="368.74175"/>
      </g>
     </g>
     <g id="line2d_38">
      <g>
       <use style="stroke:#000000;stroke-width:0.5;" x="456.4695" xlink:href="#m606dda46b5" y="23.14175"/>
      </g>
     </g>
     <g id="text_19">
      <!--  Arc Warden  -->
      <g transform="translate(459.78075 450.664875)rotate(-90.0)scale(0.12 -0.12)">
       <use xlink:href="#BitstreamVeraSans-Roman-20"/>
       <use x="31.787109375" xlink:href="#BitstreamVeraSans-Roman-41"/>
       <use x="100.1953125" xlink:href="#BitstreamVeraSans-Roman-72"/>
       <use x="141.27734375" xlink:href="#BitstreamVeraSans-Roman-63"/>
       <use x="196.2578125" xlink:href="#BitstreamVeraSans-Roman-20"/>
       <use x="228.044921875" xlink:href="#BitstreamVeraSans-Roman-57"/>
       <use x="326.828125" xlink:href="#BitstreamVeraSans-Roman-61"/>
       <use x="388.107421875" xlink:href="#BitstreamVeraSans-Roman-72"/>
       <use x="429.205078125" xlink:href="#BitstreamVeraSans-Roman-64"/>
       <use x="492.681640625" xlink:href="#BitstreamVeraSans-Roman-65"/>
       <use x="554.205078125" xlink:href="#BitstreamVeraSans-Roman-6e"/>
       <use x="617.583984375" xlink:href="#BitstreamVeraSans-Roman-20"/>
      </g>
     </g>
    </g>
    <g id="xtick_20">
     <g id="line2d_39">
      <g>
       <use style="stroke:#000000;stroke-width:0.5;" x="478.7895" xlink:href="#m7c384863e3" y="368.74175"/>
      </g>
     </g>
     <g id="line2d_40">
      <g>
       <use style="stroke:#000000;stroke-width:0.5;" x="478.7895" xlink:href="#m606dda46b5" y="23.14175"/>
      </g>
     </g>
     <g id="text_20">
      <!--  Lone Druid  -->
      <defs>
       <path d="M 9.8125 72.90625 
L 19.671875 72.90625 
L 19.671875 8.296875 
L 55.171875 8.296875 
L 55.171875 0 
L 9.8125 0 
z
" id="BitstreamVeraSans-Roman-4c"/>
      </defs>
      <g transform="translate(482.10075 445.928625)rotate(-90.0)scale(0.12 -0.12)">
       <use xlink:href="#BitstreamVeraSans-Roman-20"/>
       <use x="31.787109375" xlink:href="#BitstreamVeraSans-Roman-4c"/>
       <use x="87.484375" xlink:href="#BitstreamVeraSans-Roman-6f"/>
       <use x="148.666015625" xlink:href="#BitstreamVeraSans-Roman-6e"/>
       <use x="212.044921875" xlink:href="#BitstreamVeraSans-Roman-65"/>
       <use x="273.568359375" xlink:href="#BitstreamVeraSans-Roman-20"/>
       <use x="305.35546875" xlink:href="#BitstreamVeraSans-Roman-44"/>
       <use x="382.357421875" xlink:href="#BitstreamVeraSans-Roman-72"/>
       <use x="423.470703125" xlink:href="#BitstreamVeraSans-Roman-75"/>
       <use x="486.849609375" xlink:href="#BitstreamVeraSans-Roman-69"/>
       <use x="514.6328125" xlink:href="#BitstreamVeraSans-Roman-64"/>
       <use x="578.109375" xlink:href="#BitstreamVeraSans-Roman-20"/>
      </g>
     </g>
    </g>
   </g>
   <g id="matplotlib.axis_2">
    <g id="ytick_1">
     <g id="line2d_41">
      <defs>
       <path d="M 0 0 
L 4 0 
" id="m7b097002c0" style="stroke:#000000;stroke-width:0.5;"/>
      </defs>
      <g>
       <use style="stroke:#000000;stroke-width:0.5;" x="46.8975" xlink:href="#m7b097002c0" y="368.74175"/>
      </g>
     </g>
     <g id="line2d_42">
      <defs>
       <path d="M 0 0 
L -4 0 
" id="mfcf707cca9" style="stroke:#000000;stroke-width:0.5;"/>
      </defs>
      <g>
       <use style="stroke:#000000;stroke-width:0.5;" x="493.2975" xlink:href="#mfcf707cca9" y="368.74175"/>
      </g>
     </g>
     <g id="text_21">
      <!-- 0.0 -->
      <defs>
       <path d="M 31.78125 66.40625 
Q 24.171875 66.40625 20.328125 58.90625 
Q 16.5 51.421875 16.5 36.375 
Q 16.5 21.390625 20.328125 13.890625 
Q 24.171875 6.390625 31.78125 6.390625 
Q 39.453125 6.390625 43.28125 13.890625 
Q 47.125 21.390625 47.125 36.375 
Q 47.125 51.421875 43.28125 58.90625 
Q 39.453125 66.40625 31.78125 66.40625 
M 31.78125 74.21875 
Q 44.046875 74.21875 50.515625 64.515625 
Q 56.984375 54.828125 56.984375 36.375 
Q 56.984375 17.96875 50.515625 8.265625 
Q 44.046875 -1.421875 31.78125 -1.421875 
Q 19.53125 -1.421875 13.0625 8.265625 
Q 6.59375 17.96875 6.59375 36.375 
Q 6.59375 54.828125 13.0625 64.515625 
Q 19.53125 74.21875 31.78125 74.21875 
" id="BitstreamVeraSans-Roman-30"/>
       <path d="M 10.6875 12.40625 
L 21 12.40625 
L 21 0 
L 10.6875 0 
z
" id="BitstreamVeraSans-Roman-2e"/>
      </defs>
      <g transform="translate(23.81375 372.053)scale(0.12 -0.12)">
       <use xlink:href="#BitstreamVeraSans-Roman-30"/>
       <use x="63.623046875" xlink:href="#BitstreamVeraSans-Roman-2e"/>
       <use x="95.41015625" xlink:href="#BitstreamVeraSans-Roman-30"/>
      </g>
     </g>
    </g>
    <g id="ytick_2">
     <g id="line2d_43">
      <g>
       <use style="stroke:#000000;stroke-width:0.5;" x="46.8975" xlink:href="#m7b097002c0" y="311.14175"/>
      </g>
     </g>
     <g id="line2d_44">
      <g>
       <use style="stroke:#000000;stroke-width:0.5;" x="493.2975" xlink:href="#mfcf707cca9" y="311.14175"/>
      </g>
     </g>
     <g id="text_22">
      <!-- 0.1 -->
      <defs>
       <path d="M 12.40625 8.296875 
L 28.515625 8.296875 
L 28.515625 63.921875 
L 10.984375 60.40625 
L 10.984375 69.390625 
L 28.421875 72.90625 
L 38.28125 72.90625 
L 38.28125 8.296875 
L 54.390625 8.296875 
L 54.390625 0 
L 12.40625 0 
z
" id="BitstreamVeraSans-Roman-31"/>
      </defs>
      <g transform="translate(23.81375 314.453)scale(0.12 -0.12)">
       <use xlink:href="#BitstreamVeraSans-Roman-30"/>
       <use x="63.623046875" xlink:href="#BitstreamVeraSans-Roman-2e"/>
       <use x="95.41015625" xlink:href="#BitstreamVeraSans-Roman-31"/>
      </g>
     </g>
    </g>
    <g id="ytick_3">
     <g id="line2d_45">
      <g>
       <use style="stroke:#000000;stroke-width:0.5;" x="46.8975" xlink:href="#m7b097002c0" y="253.54175"/>
      </g>
     </g>
     <g id="line2d_46">
      <g>
       <use style="stroke:#000000;stroke-width:0.5;" x="493.2975" xlink:href="#mfcf707cca9" y="253.54175"/>
      </g>
     </g>
     <g id="text_23">
      <!-- 0.2 -->
      <defs>
       <path d="M 19.1875 8.296875 
L 53.609375 8.296875 
L 53.609375 0 
L 7.328125 0 
L 7.328125 8.296875 
Q 12.9375 14.109375 22.625 23.890625 
Q 32.328125 33.6875 34.8125 36.53125 
Q 39.546875 41.84375 41.421875 45.53125 
Q 43.3125 49.21875 43.3125 52.78125 
Q 43.3125 58.59375 39.234375 62.25 
Q 35.15625 65.921875 28.609375 65.921875 
Q 23.96875 65.921875 18.8125 64.3125 
Q 13.671875 62.703125 7.8125 59.421875 
L 7.8125 69.390625 
Q 13.765625 71.78125 18.9375 73 
Q 24.125 74.21875 28.421875 74.21875 
Q 39.75 74.21875 46.484375 68.546875 
Q 53.21875 62.890625 53.21875 53.421875 
Q 53.21875 48.921875 51.53125 44.890625 
Q 49.859375 40.875 45.40625 35.40625 
Q 44.1875 33.984375 37.640625 27.21875 
Q 31.109375 20.453125 19.1875 8.296875 
" id="BitstreamVeraSans-Roman-32"/>
      </defs>
      <g transform="translate(23.81375 256.853)scale(0.12 -0.12)">
       <use xlink:href="#BitstreamVeraSans-Roman-30"/>
       <use x="63.623046875" xlink:href="#BitstreamVeraSans-Roman-2e"/>
       <use x="95.41015625" xlink:href="#BitstreamVeraSans-Roman-32"/>
      </g>
     </g>
    </g>
    <g id="ytick_4">
     <g id="line2d_47">
      <g>
       <use style="stroke:#000000;stroke-width:0.5;" x="46.8975" xlink:href="#m7b097002c0" y="195.94175"/>
      </g>
     </g>
     <g id="line2d_48">
      <g>
       <use style="stroke:#000000;stroke-width:0.5;" x="493.2975" xlink:href="#mfcf707cca9" y="195.94175"/>
      </g>
     </g>
     <g id="text_24">
      <!-- 0.3 -->
      <defs>
       <path d="M 40.578125 39.3125 
Q 47.65625 37.796875 51.625 33 
Q 55.609375 28.21875 55.609375 21.1875 
Q 55.609375 10.40625 48.1875 4.484375 
Q 40.765625 -1.421875 27.09375 -1.421875 
Q 22.515625 -1.421875 17.65625 -0.515625 
Q 12.796875 0.390625 7.625 2.203125 
L 7.625 11.71875 
Q 11.71875 9.328125 16.59375 8.109375 
Q 21.484375 6.890625 26.8125 6.890625 
Q 36.078125 6.890625 40.9375 10.546875 
Q 45.796875 14.203125 45.796875 21.1875 
Q 45.796875 27.640625 41.28125 31.265625 
Q 36.765625 34.90625 28.71875 34.90625 
L 20.21875 34.90625 
L 20.21875 43.015625 
L 29.109375 43.015625 
Q 36.375 43.015625 40.234375 45.921875 
Q 44.09375 48.828125 44.09375 54.296875 
Q 44.09375 59.90625 40.109375 62.90625 
Q 36.140625 65.921875 28.71875 65.921875 
Q 24.65625 65.921875 20.015625 65.03125 
Q 15.375 64.15625 9.8125 62.3125 
L 9.8125 71.09375 
Q 15.4375 72.65625 20.34375 73.4375 
Q 25.25 74.21875 29.59375 74.21875 
Q 40.828125 74.21875 47.359375 69.109375 
Q 53.90625 64.015625 53.90625 55.328125 
Q 53.90625 49.265625 50.4375 45.09375 
Q 46.96875 40.921875 40.578125 39.3125 
" id="BitstreamVeraSans-Roman-33"/>
      </defs>
      <g transform="translate(23.81375 199.253)scale(0.12 -0.12)">
       <use xlink:href="#BitstreamVeraSans-Roman-30"/>
       <use x="63.623046875" xlink:href="#BitstreamVeraSans-Roman-2e"/>
       <use x="95.41015625" xlink:href="#BitstreamVeraSans-Roman-33"/>
      </g>
     </g>
    </g>
    <g id="ytick_5">
     <g id="line2d_49">
      <g>
       <use style="stroke:#000000;stroke-width:0.5;" x="46.8975" xlink:href="#m7b097002c0" y="138.34175"/>
      </g>
     </g>
     <g id="line2d_50">
      <g>
       <use style="stroke:#000000;stroke-width:0.5;" x="493.2975" xlink:href="#mfcf707cca9" y="138.34175"/>
      </g>
     </g>
     <g id="text_25">
      <!-- 0.4 -->
      <defs>
       <path d="M 37.796875 64.3125 
L 12.890625 25.390625 
L 37.796875 25.390625 
z
M 35.203125 72.90625 
L 47.609375 72.90625 
L 47.609375 25.390625 
L 58.015625 25.390625 
L 58.015625 17.1875 
L 47.609375 17.1875 
L 47.609375 0 
L 37.796875 0 
L 37.796875 17.1875 
L 4.890625 17.1875 
L 4.890625 26.703125 
z
" id="BitstreamVeraSans-Roman-34"/>
      </defs>
      <g transform="translate(23.81375 141.653)scale(0.12 -0.12)">
       <use xlink:href="#BitstreamVeraSans-Roman-30"/>
       <use x="63.623046875" xlink:href="#BitstreamVeraSans-Roman-2e"/>
       <use x="95.41015625" xlink:href="#BitstreamVeraSans-Roman-34"/>
      </g>
     </g>
    </g>
    <g id="ytick_6">
     <g id="line2d_51">
      <g>
       <use style="stroke:#000000;stroke-width:0.5;" x="46.8975" xlink:href="#m7b097002c0" y="80.74175"/>
      </g>
     </g>
     <g id="line2d_52">
      <g>
       <use style="stroke:#000000;stroke-width:0.5;" x="493.2975" xlink:href="#mfcf707cca9" y="80.74175"/>
      </g>
     </g>
     <g id="text_26">
      <!-- 0.5 -->
      <defs>
       <path d="M 10.796875 72.90625 
L 49.515625 72.90625 
L 49.515625 64.59375 
L 19.828125 64.59375 
L 19.828125 46.734375 
Q 21.96875 47.46875 24.109375 47.828125 
Q 26.265625 48.1875 28.421875 48.1875 
Q 40.625 48.1875 47.75 41.5 
Q 54.890625 34.8125 54.890625 23.390625 
Q 54.890625 11.625 47.5625 5.09375 
Q 40.234375 -1.421875 26.90625 -1.421875 
Q 22.3125 -1.421875 17.546875 -0.640625 
Q 12.796875 0.140625 7.71875 1.703125 
L 7.71875 11.625 
Q 12.109375 9.234375 16.796875 8.0625 
Q 21.484375 6.890625 26.703125 6.890625 
Q 35.15625 6.890625 40.078125 11.328125 
Q 45.015625 15.765625 45.015625 23.390625 
Q 45.015625 31 40.078125 35.4375 
Q 35.15625 39.890625 26.703125 39.890625 
Q 22.75 39.890625 18.8125 39.015625 
Q 14.890625 38.140625 10.796875 36.28125 
z
" id="BitstreamVeraSans-Roman-35"/>
      </defs>
      <g transform="translate(23.81375 84.053)scale(0.12 -0.12)">
       <use xlink:href="#BitstreamVeraSans-Roman-30"/>
       <use x="63.623046875" xlink:href="#BitstreamVeraSans-Roman-2e"/>
       <use x="95.41015625" xlink:href="#BitstreamVeraSans-Roman-35"/>
      </g>
     </g>
    </g>
    <g id="ytick_7">
     <g id="line2d_53">
      <g>
       <use style="stroke:#000000;stroke-width:0.5;" x="46.8975" xlink:href="#m7b097002c0" y="23.14175"/>
      </g>
     </g>
     <g id="line2d_54">
      <g>
       <use style="stroke:#000000;stroke-width:0.5;" x="493.2975" xlink:href="#mfcf707cca9" y="23.14175"/>
      </g>
     </g>
     <g id="text_27">
      <!-- 0.6 -->
      <defs>
       <path d="M 33.015625 40.375 
Q 26.375 40.375 22.484375 35.828125 
Q 18.609375 31.296875 18.609375 23.390625 
Q 18.609375 15.53125 22.484375 10.953125 
Q 26.375 6.390625 33.015625 6.390625 
Q 39.65625 6.390625 43.53125 10.953125 
Q 47.40625 15.53125 47.40625 23.390625 
Q 47.40625 31.296875 43.53125 35.828125 
Q 39.65625 40.375 33.015625 40.375 
M 52.59375 71.296875 
L 52.59375 62.3125 
Q 48.875 64.0625 45.09375 64.984375 
Q 41.3125 65.921875 37.59375 65.921875 
Q 27.828125 65.921875 22.671875 59.328125 
Q 17.53125 52.734375 16.796875 39.40625 
Q 19.671875 43.65625 24.015625 45.921875 
Q 28.375 48.1875 33.59375 48.1875 
Q 44.578125 48.1875 50.953125 41.515625 
Q 57.328125 34.859375 57.328125 23.390625 
Q 57.328125 12.15625 50.6875 5.359375 
Q 44.046875 -1.421875 33.015625 -1.421875 
Q 20.359375 -1.421875 13.671875 8.265625 
Q 6.984375 17.96875 6.984375 36.375 
Q 6.984375 53.65625 15.1875 63.9375 
Q 23.390625 74.21875 37.203125 74.21875 
Q 40.921875 74.21875 44.703125 73.484375 
Q 48.484375 72.75 52.59375 71.296875 
" id="BitstreamVeraSans-Roman-36"/>
      </defs>
      <g transform="translate(23.81375 26.453)scale(0.12 -0.12)">
       <use xlink:href="#BitstreamVeraSans-Roman-30"/>
       <use x="63.623046875" xlink:href="#BitstreamVeraSans-Roman-2e"/>
       <use x="95.41015625" xlink:href="#BitstreamVeraSans-Roman-36"/>
      </g>
     </g>
    </g>
    <g id="text_28">
     <!-- Probability -->
     <g transform="translate(16.318125 227.893625)rotate(-90.0)scale(0.12 -0.12)">
      <use xlink:href="#BitstreamVeraSans-Roman-50"/>
      <use x="60.287109375" xlink:href="#BitstreamVeraSans-Roman-72"/>
      <use x="101.369140625" xlink:href="#BitstreamVeraSans-Roman-6f"/>
      <use x="162.55078125" xlink:href="#BitstreamVeraSans-Roman-62"/>
      <use x="226.02734375" xlink:href="#BitstreamVeraSans-Roman-61"/>
      <use x="287.306640625" xlink:href="#BitstreamVeraSans-Roman-62"/>
      <use x="350.783203125" xlink:href="#BitstreamVeraSans-Roman-69"/>
      <use x="378.56640625" xlink:href="#BitstreamVeraSans-Roman-6c"/>
      <use x="406.349609375" xlink:href="#BitstreamVeraSans-Roman-69"/>
      <use x="434.1328125" xlink:href="#BitstreamVeraSans-Roman-74"/>
      <use x="473.341796875" xlink:href="#BitstreamVeraSans-Roman-79"/>
     </g>
    </g>
   </g>
   <g id="text_29">
    <!-- Risk Averse - 20 heroes -->
    <defs>
     <path d="M 44.390625 34.1875 
Q 47.5625 33.109375 50.5625 29.59375 
Q 53.5625 26.078125 56.59375 19.921875 
L 66.609375 0 
L 56 0 
L 46.6875 18.703125 
Q 43.0625 26.03125 39.671875 28.421875 
Q 36.28125 30.8125 30.421875 30.8125 
L 19.671875 30.8125 
L 19.671875 0 
L 9.8125 0 
L 9.8125 72.90625 
L 32.078125 72.90625 
Q 44.578125 72.90625 50.734375 67.671875 
Q 56.890625 62.453125 56.890625 51.90625 
Q 56.890625 45.015625 53.6875 40.46875 
Q 50.484375 35.9375 44.390625 34.1875 
M 19.671875 64.796875 
L 19.671875 38.921875 
L 32.078125 38.921875 
Q 39.203125 38.921875 42.84375 42.21875 
Q 46.484375 45.515625 46.484375 51.90625 
Q 46.484375 58.296875 42.84375 61.546875 
Q 39.203125 64.796875 32.078125 64.796875 
z
" id="BitstreamVeraSans-Roman-52"/>
    </defs>
    <g transform="translate(184.972125 18.14175)scale(0.144 -0.144)">
     <use xlink:href="#BitstreamVeraSans-Roman-52"/>
     <use x="69.482421875" xlink:href="#BitstreamVeraSans-Roman-69"/>
     <use x="97.265625" xlink:href="#BitstreamVeraSans-Roman-73"/>
     <use x="149.365234375" xlink:href="#BitstreamVeraSans-Roman-6b"/>
     <use x="207.275390625" xlink:href="#BitstreamVeraSans-Roman-20"/>
     <use x="239.0625" xlink:href="#BitstreamVeraSans-Roman-41"/>
     <use x="307.392578125" xlink:href="#BitstreamVeraSans-Roman-76"/>
     <use x="366.572265625" xlink:href="#BitstreamVeraSans-Roman-65"/>
     <use x="428.095703125" xlink:href="#BitstreamVeraSans-Roman-72"/>
     <use x="469.208984375" xlink:href="#BitstreamVeraSans-Roman-73"/>
     <use x="521.30859375" xlink:href="#BitstreamVeraSans-Roman-65"/>
     <use x="582.83203125" xlink:href="#BitstreamVeraSans-Roman-20"/>
     <use x="614.619140625" xlink:href="#BitstreamVeraSans-Roman-2d"/>
     <use x="650.703125" xlink:href="#BitstreamVeraSans-Roman-20"/>
     <use x="682.490234375" xlink:href="#BitstreamVeraSans-Roman-32"/>
     <use x="746.11328125" xlink:href="#BitstreamVeraSans-Roman-30"/>
     <use x="809.736328125" xlink:href="#BitstreamVeraSans-Roman-20"/>
     <use x="841.5234375" xlink:href="#BitstreamVeraSans-Roman-68"/>
     <use x="904.90234375" xlink:href="#BitstreamVeraSans-Roman-65"/>
     <use x="966.42578125" xlink:href="#BitstreamVeraSans-Roman-72"/>
     <use x="1007.5078125" xlink:href="#BitstreamVeraSans-Roman-6f"/>
     <use x="1068.68945312" xlink:href="#BitstreamVeraSans-Roman-65"/>
     <use x="1130.21289062" xlink:href="#BitstreamVeraSans-Roman-73"/>
    </g>
   </g>
  </g>
 </g>
 <defs>
  <clipPath id="p867e7b0a0e">
   <rect height="345.6" width="446.4" x="46.8975" y="23.14175"/>
  </clipPath>
 </defs>
</svg>
